<?xml version="1.0" encoding="UTF-8" standalone="no"?>
<!-- Created with Inkscape (http://www.inkscape.org/) -->

<svg
   width="58.509541mm"
   height="47.253403mm"
   viewBox="0 0 221.13842 178.59553"
   version="1.1"
   id="svg1"
   inkscape:export-filename="logo.svg"
   inkscape:export-xdpi="96"
   inkscape:export-ydpi="96"
   inkscape:version="1.4 (e7c3feb100, 2024-10-09)"
   sodipodi:docname="chatbytelogo.svg"
   xmlns:inkscape="http://www.inkscape.org/namespaces/inkscape"
   xmlns:sodipodi="http://sodipodi.sourceforge.net/DTD/sodipodi-0.dtd"
   xmlns="http://www.w3.org/2000/svg"
   xmlns:svg="http://www.w3.org/2000/svg">
  <sodipodi:namedview
     id="namedview1"
     pagecolor="#505050"
     bordercolor="#eeeeee"
     borderopacity="1"
     inkscape:showpageshadow="0"
     inkscape:pageopacity="0"
     inkscape:pagecheckerboard="0"
     inkscape:deskcolor="#505050"
     inkscape:document-units="mm"
     inkscape:zoom="1.5002729"
     inkscape:cx="273.95016"
     inkscape:cy="171.63544"
     inkscape:window-width="1910"
     inkscape:window-height="1046"
     inkscape:window-x="5"
     inkscape:window-y="29"
     inkscape:window-maximized="1"
     inkscape:current-layer="layer1">
    <inkscape:page
       x="4.2067367e-13"
       y="3.4043081e-13"
       width="221.13841"
       height="178.59554"
       id="page2"
       margin="0"
       bleed="0" />
  </sodipodi:namedview>
  <defs
     id="defs1" />
  <g
     inkscape:label="Layer 1"
     inkscape:groupmode="layer"
     id="layer1"
     transform="translate(-815.73632,-486.60101)">
    <path
       id="rect6-2-1"
       style="fill:#3d72ff;stroke-width:1.00157"
       d="m 846.6011,486.60101 h 159.4088 c 17.0991,0 30.8648,13.76572 30.8648,30.86483 v 81.67553 c 0,17.09911 -13.7657,30.86483 -30.8648,30.86483 H 846.6011 c -17.09912,0 -30.86483,-13.76572 -30.86483,-30.86483 v -81.67553 c 0,-17.09911 13.76571,-30.86483 30.86483,-30.86483 z" />
    <path
       id="rect7-7-8"
       style="fill:#3d72ff;stroke-width:1.00157"
       d="m 896.30767,591.30897 h 140.00503 v 73.88755 z"
       sodipodi:nodetypes="cccc" />
    <path
       style="font-weight:800;font-size:113.652px;font-family:'JetBrainsMono Nerd Font';-inkscape-font-specification:'JetBrainsMono Nerd Font, Ultra-Bold';fill:#f9f9f9;stroke-width:0.948587"
       d="m 859.58199,599.4478 q -8.2966,0 -14.4338,-3.0686 -6.13721,-3.18226 -9.54677,-8.75121 -3.29591,-5.6826 -3.29591,-13.18363 v -35.23212 q 0,-7.50103 3.29591,-13.06998 3.40956,-5.6826 9.54677,-8.75121 6.1372,-3.18225 14.4338,-3.18225 8.41025,0 14.4338,3.18225 6.13721,3.06861 9.43312,8.75121 3.40956,5.56895 3.40956,13.06998 v 35.23212 q 0,7.50103 -3.40956,13.18363 -3.29591,5.56895 -9.43312,8.75121 -6.02355,3.0686 -14.4338,3.0686 z m 0,-14.77476 q 5.34164,0 8.2966,-2.72765 3.0686,-2.72765 3.0686,-7.50103 v -35.23212 q 0,-4.77338 -3.0686,-7.50103 -2.95496,-2.72765 -8.2966,-2.72765 -5.34164,0 -8.41025,2.72765 -2.95495,2.72765 -2.95495,7.50103 v 35.23212 q 0,4.77338 3.0686,7.50103 3.06861,2.72765 8.2966,2.72765 z m 0,-20.57101 q -3.52321,0 -5.79625,-1.93209 -2.15939,-2.04573 -2.15939,-5.6826 0,-3.63686 2.15939,-5.45529 2.27304,-1.93209 5.79625,-1.93209 3.63686,0 5.79625,1.93209 2.15939,1.81843 2.15939,5.45529 0,3.63687 -2.15939,5.6826 -2.15939,1.93209 -5.79625,1.93209 z m 43.18781,34.20925 v -15.34302 h 20.91196 v -50.34784 l -21.13927,15.22937 v -18.86623 l 19.43449,-13.63824 h 18.75258 v 67.62294 h 16.5932 v 15.34302 z m 93.19468,1.13652 q -8.29659,0 -14.4338,-3.0686 -6.13721,-3.18226 -9.54677,-8.75121 -3.29591,-5.6826 -3.29591,-13.18363 v -35.23212 q 0,-7.50103 3.29591,-13.06998 3.40956,-5.6826 9.54677,-8.75121 6.13721,-3.18225 14.4338,-3.18225 8.41022,0 14.43382,3.18225 6.1372,3.06861 9.4331,8.75121 3.4096,5.56895 3.4096,13.06998 v 35.23212 q 0,7.50103 -3.4096,13.18363 -3.2959,5.56895 -9.4331,8.75121 -6.0236,3.0686 -14.43382,3.0686 z m 0,-14.77476 q 5.34162,0 8.29662,-2.72765 3.0686,-2.72765 3.0686,-7.50103 v -35.23212 q 0,-4.77338 -3.0686,-7.50103 -2.955,-2.72765 -8.29662,-2.72765 -5.34164,0 -8.41025,2.72765 -2.95495,2.72765 -2.95495,7.50103 v 35.23212 q 0,4.77338 3.06861,7.50103 3.0686,2.72765 8.29659,2.72765 z m 0,-20.57101 q -3.52321,0 -5.79625,-1.93209 -2.15939,-2.04573 -2.15939,-5.6826 0,-3.63686 2.15939,-5.45529 2.27304,-1.93209 5.79625,-1.93209 3.63687,0 5.79622,1.93209 2.1594,1.81843 2.1594,5.45529 0,3.63687 -2.1594,5.6826 -2.15935,1.93209 -5.79622,1.93209 z"
       id="text12-0-9"
       aria-label="010" />
  </g>
</svg>
